<svg width="22" height="22" fill="none" xmlns="http://www.w3.org/2000/svg"><path d="M18.925 14.222a10.403 10.403 0 00-3.99-2.622c1.59-1.148 2.635-3.069 2.635-5.24C17.57 2.852 14.847 0 11.5 0 8.153 0 5.43 2.853 5.43 6.36c0 2.171 1.045 4.092 2.635 5.24a10.403 10.403 0 00-3.99 2.622C2.092 16.299 1 19.062 1 22h1.64c0-5.118 3.975-9.281 8.86-9.281s8.86 4.163 8.86 9.281H22c0-2.938-1.092-5.7-3.075-7.778zM11.5 11c-2.443 0-4.43-2.082-4.43-4.64 0-2.56 1.987-4.641 4.43-4.641 2.443 0 4.43 2.082 4.43 4.64C15.93 8.92 13.943 11 11.5 11z" fill="#FFF68E"/></svg>