<svg width="22" height="22" viewBox="0 0 22 22" fill="none" xmlns="http://www.w3.org/2000/svg">
<path d="M20.4236 19.4514L15.433 14.4607C16.5272 13.1488 17.1875 11.463 17.1875 9.625C17.1875 5.45497 13.795 2.0625 9.625 2.0625C5.45497 2.0625 2.0625 5.45497 2.0625 9.625C2.0625 13.795 5.45497 17.1875 9.625 17.1875C11.463 17.1875 13.1488 16.5272 14.4607 15.433L19.4514 20.4237C19.5857 20.558 19.7617 20.6252 19.9375 20.6252C20.1133 20.6252 20.2893 20.558 20.4236 20.4237C20.6922 20.1551 20.6922 19.7199 20.4236 19.4514ZM3.4375 9.625C3.4375 6.21328 6.21294 3.4375 9.625 3.4375C13.0371 3.4375 15.8125 6.21328 15.8125 9.625C15.8125 13.0367 13.0371 15.8125 9.625 15.8125C6.21294 15.8125 3.4375 13.0367 3.4375 9.625Z" fill="#FFF68E"/>
</svg>
