<svg width="22" height="22" viewBox="0 0 22 22" fill="none" xmlns="http://www.w3.org/2000/svg">
<path d="M18.9246 14.2218C17.781 13.0237 16.4198 12.1368 14.9346 11.5999C16.5253 10.4522 17.5703 8.53136 17.5703 6.35938C17.5703 2.85282 14.8472 0 11.5 0C8.15284 0 5.42969 2.85282 5.42969 6.35938C5.42969 8.53136 6.47472 10.4522 8.06543 11.5999C6.58026 12.1368 5.21903 13.0237 4.07539 14.2218C2.09221 16.2995 1 19.0618 1 22H2.64062C2.64062 16.8823 6.61492 12.7188 11.5 12.7188C16.3851 12.7188 20.3594 16.8823 20.3594 22H22C22 19.0618 20.9078 16.2995 18.9246 14.2218ZM11.5 11C9.05748 11 7.07031 8.91825 7.07031 6.35938C7.07031 3.8005 9.05748 1.71875 11.5 1.71875C13.9425 1.71875 15.9297 3.8005 15.9297 6.35938C15.9297 8.91825 13.9425 11 11.5 11Z" fill="#FFF68E"/>
</svg>
